<svg width="20" height="21" viewBox="0 0 20 21" fill="none" xmlns="http://www.w3.org/2000/svg">
<path opacity="0.4" d="M18.325 5.51671C18.3417 5.71671 18.325 5.92504 18.275 6.13337L15.4667 17.4083C15.2667 18.25 14.5167 18.8334 13.65 18.8334H2.69999C1.44165 18.8334 0.550001 17.6 0.916668 16.3917L4.42499 5.11668C4.66666 4.33335 5.39167 3.80005 6.20834 3.80005H16.4583C17.2583 3.80005 17.9083 4.27504 18.1833 4.94171C18.2667 5.11671 18.3083 5.31671 18.325 5.51671Z" fill="#D04B1E"/>
<path d="M19.1583 16.85C19.2417 17.925 18.3917 18.8333 17.3167 18.8333H13.65C14.5167 18.8333 15.2667 18.25 15.4667 17.4083L18.275 6.13334C18.325 5.92501 18.3417 5.71668 18.325 5.51668L18.3333 5.5L19.1583 16.85Z" fill="#D04B1E"/>
<path d="M8.06665 6.4417C8.01665 6.4417 7.96666 6.43335 7.91666 6.42501C7.58332 6.34168 7.375 6.00837 7.45833 5.6667L8.32498 2.0667C8.40831 1.73336 8.74165 1.53337 9.08332 1.60837C9.41665 1.69171 9.625 2.02502 9.54167 2.36668L8.67499 5.96669C8.60833 6.25002 8.34998 6.4417 8.06665 6.4417Z" fill="#D04B1E"/>
<path d="M13.65 6.44996C13.6083 6.44996 13.5583 6.44994 13.5167 6.43327C13.1833 6.35827 12.9667 6.02493 13.0333 5.6916L13.8167 2.07496C13.8917 1.73329 14.225 1.52494 14.5583 1.59161C14.8917 1.66661 15.1083 1.99995 15.0417 2.33329L14.2583 5.94993C14.2 6.24993 13.9417 6.44996 13.65 6.44996Z" fill="#D04B1E"/>
<path d="M13.0833 11.125H6.41668C6.07501 11.125 5.79168 10.8417 5.79168 10.5C5.79168 10.1583 6.07501 9.875 6.41668 9.875H13.0833C13.425 9.875 13.7083 10.1583 13.7083 10.5C13.7083 10.8417 13.425 11.125 13.0833 11.125Z" fill="#D04B1E"/>
<path d="M12.25 14.4583H5.58334C5.24168 14.4583 4.95834 14.175 4.95834 13.8333C4.95834 13.4916 5.24168 13.2083 5.58334 13.2083H12.25C12.5917 13.2083 12.875 13.4916 12.875 13.8333C12.875 14.175 12.5917 14.4583 12.25 14.4583Z" fill="#D04B1E"/>
</svg>
