<svg width="23" height="22" viewBox="0 0 23 22" fill="none" xmlns="http://www.w3.org/2000/svg">
<path opacity="0.4" d="M16.25 8.25004C16.25 11.7975 13.17 14.6667 9.375 14.6667L8.52251 15.6934L8.01834 16.2984C7.5875 16.8117 6.7625 16.7017 6.47833 16.0875L5.25 13.3834C3.58167 12.21 2.5 10.3492 2.5 8.25004C2.5 4.70254 5.58 1.83337 9.375 1.83337C12.1433 1.83337 14.5358 3.36421 15.6083 5.56421C16.0208 6.38005 16.25 7.28754 16.25 8.25004Z" fill="white"/>
<path d="M20.8333 11.7884C20.8333 13.8875 19.7516 15.7484 18.0833 16.9217L16.855 19.6258C16.5708 20.24 15.7458 20.3592 15.315 19.8367L13.9583 18.205C11.74 18.205 9.75999 17.2242 8.52249 15.6934L9.37498 14.6667C13.17 14.6667 16.25 11.7975 16.25 8.25004C16.25 7.28754 16.0208 6.38004 15.6083 5.56421C18.6058 6.25171 20.8333 8.78169 20.8333 11.7884Z" fill="white"/>
<path d="M11.6666 8.9375H7.08331C6.70748 8.9375 6.39581 8.62583 6.39581 8.25C6.39581 7.87417 6.70748 7.5625 7.08331 7.5625H11.6666C12.0425 7.5625 12.3541 7.87417 12.3541 8.25C12.3541 8.62583 12.0425 8.9375 11.6666 8.9375Z" fill="white"/>
</svg>
