<svg width="32" height="32" viewBox="0 0 32 32" fill="none" xmlns="http://www.w3.org/2000/svg">
<path d="M9.33337 7.66666C8.78671 7.66666 8.33337 7.21332 8.33337 6.66666V2.66666C8.33337 2.11999 8.78671 1.66666 9.33337 1.66666C9.88004 1.66666 10.3334 2.11999 10.3334 2.66666V6.66666C10.3334 7.21332 9.88004 7.66666 9.33337 7.66666Z" fill="#D04B1E"/>
<path d="M20 7.66666C19.4533 7.66666 19 7.21332 19 6.66666V2.66666C19 2.11999 19.4533 1.66666 20 1.66666C20.5467 1.66666 21 2.11999 21 2.66666V6.66666C21 7.21332 20.5467 7.66666 20 7.66666Z" fill="#D04B1E"/>
<path opacity="0.4" d="M26.6666 11.3333V22.6667C26.6666 26.6667 24.6666 29.3333 20 29.3333H9.33329C4.66663 29.3333 2.66663 26.6667 2.66663 22.6667V11.3333C2.66663 7.33332 4.66663 4.66666 9.33329 4.66666H20C24.6666 4.66666 26.6666 7.33332 26.6666 11.3333Z" fill="#D04B1E"/>
<path d="M17.3334 15.6667H9.33337C8.78671 15.6667 8.33337 15.2133 8.33337 14.6667C8.33337 14.12 8.78671 13.6667 9.33337 13.6667H17.3334C17.88 13.6667 18.3334 14.12 18.3334 14.6667C18.3334 15.2133 17.88 15.6667 17.3334 15.6667Z" fill="#D04B1E"/>
<path d="M13.3334 22.3333H9.33337C8.78671 22.3333 8.33337 21.88 8.33337 21.3333C8.33337 20.7867 8.78671 20.3333 9.33337 20.3333H13.3334C13.88 20.3333 14.3334 20.7867 14.3334 21.3333C14.3334 21.88 13.88 22.3333 13.3334 22.3333Z" fill="#D04B1E"/>
<path d="M28 18.1733C26.8133 17.2267 25.3066 16.6667 23.6666 16.6667C22.0266 16.6667 20.4933 17.24 19.2933 18.2133C17.68 19.48 16.6666 21.4667 16.6666 23.6667C16.6666 24.9733 17.04 26.2267 17.68 27.2667C18.1733 28.08 18.8133 28.7867 19.5733 29.3333C20.7199 30.1733 22.1333 30.6667 23.6666 30.6667C25.44 30.6667 27.04 30.0133 28.2666 28.92C28.8133 28.4667 29.2799 27.9067 29.6533 27.2667C30.2933 26.2267 30.6666 24.9733 30.6666 23.6667C30.6666 21.44 29.6266 19.4533 28 18.1733ZM23.6666 27C23.6666 25.16 22.1733 23.6667 20.3333 23.6667C22.1733 23.6667 23.6666 22.1733 23.6666 20.3333C23.6666 22.1733 25.16 23.6667 27 23.6667C25.16 23.6667 23.6666 25.16 23.6666 27Z" fill="#D04B1E"/>
</svg>
