<svg width="23" height="22" viewBox="0 0 23 22" fill="none" xmlns="http://www.w3.org/2000/svg">
<path d="M20.5 5.50004V7.71837C20.5 9.16671 19.5833 10.0834 18.135 10.0834H15V3.67587C15 2.65837 15.8342 1.83337 16.8517 1.83337C17.8508 1.84254 18.7675 2.24587 19.4275 2.90587C20.0875 3.57504 20.5 4.49171 20.5 5.50004Z" fill="white"/>
<path opacity="0.4" d="M2.16666 6.41671V19.25C2.16666 20.0109 3.02833 20.4417 3.63333 19.9834L5.20082 18.81C5.56749 18.535 6.08083 18.5717 6.41083 18.9017L7.93248 20.4325C8.28998 20.79 8.87666 20.79 9.23416 20.4325L10.7742 18.8925C11.095 18.5717 11.6083 18.535 11.9658 18.81L13.5333 19.9834C14.1383 20.4325 15 20.0017 15 19.25V3.66671C15 2.65837 15.825 1.83337 16.8333 1.83337H6.74999H5.83332C3.08332 1.83337 2.16666 3.47421 2.16666 5.50004V6.41671Z" fill="white"/>
<path d="M11.3333 8.9375H5.83333C5.45749 8.9375 5.14583 8.62583 5.14583 8.25C5.14583 7.87417 5.45749 7.5625 5.83333 7.5625H11.3333C11.7092 7.5625 12.0208 7.87417 12.0208 8.25C12.0208 8.62583 11.7092 8.9375 11.3333 8.9375Z" fill="white"/>
<path d="M10.6458 12.6041H6.52083C6.14499 12.6041 5.83333 12.2925 5.83333 11.9166C5.83333 11.5408 6.14499 11.2291 6.52083 11.2291H10.6458C11.0217 11.2291 11.3333 11.5408 11.3333 11.9166C11.3333 12.2925 11.0217 12.6041 10.6458 12.6041Z" fill="white"/>
</svg>
